<?xml version="1.0" standalone="no"?>
<!DOCTYPE svg PUBLIC "-//W3C//DTD SVG 1.1//EN" "http://www.w3.org/Graphics/SVG/1.1/DTD/svg11.dtd">
<svg t="1596011835574" class="icon" viewBox="0 0 1024 1024" version="1.1" xmlns="http://www.w3.org/2000/svg" p-id="2142" xmlns:xlink="http://www.w3.org/1999/xlink" width="16" height="16">
    <path d="M331.162 847.657L889.92 288.923c12.449-12.454 12.449-32.69 0-45.146l-67.745-67.735-67.713-67.72c-12.47-12.472-32.69-12.472-45.17 0L150.44 667.186a23.75 23.75 0 0 0-7.786 11.66L80.812 884.612c-2.62 8.746-0.025 17.811 6.002 23.843l1.676 1.303 1.301 1.674a23.987 23.987 0 0 0 23.845 6.01l205.773-61.85a23.829 23.829 0 0 0 11.753-7.935zM743.16 164.754l45.584 45.585 44.72 44.725c6.243 6.237 6.243 16.355 0 22.574l-79 79-112.886-112.883 79-79c6.245-6.237 16.347-6.237 22.582 0zM138.204 860.043l48.523-161.42 432.27-432.28 112.884 112.883-432.303 432.31-161.374 48.507z" p-id="2143">
</path>
</svg>
