<?xml version="1.0" standalone="no"?>
<!DOCTYPE svg PUBLIC "-//W3C//DTD SVG 1.1//EN" "http://www.w3.org/Graphics/SVG/1.1/DTD/svg11.dtd">
<svg t="1596003721525" class="icon" viewBox="0 0 1024 1024" version="1.1" xmlns="http://www.w3.org/2000/svg" p-id="3070" xmlns:xlink="http://www.w3.org/1999/xlink">
    <path d="M556.8 979.2c-262.4 0-473.6-211.2-473.6-467.2s211.2-467.2 467.2-467.2c12.8 0 19.2 6.4 25.6 12.8 6.4 12.8 6.4 19.2 0 32-57.6 70.4-83.2 160-83.2 249.6 0 230.4 185.6 416 416 416h6.4c12.8 0 19.2 6.4 25.6 12.8 6.4 12.8 6.4 19.2 0 32a498.56 498.56 0 0 1-384 179.2z m-64-876.8c-198.4 32-352 204.8-352 409.6 0 230.4 185.6 416 416 416 108.8 0 211.2-44.8 288-121.6-236.8-25.6-416-230.4-416-467.2 0-89.6 25.6-166.4 64-236.8z" fill="" p-id="3071">
    </path>
    <path d="M582.4 883.2c-192 0-352-134.4-384-320 0-6.4 6.4-12.8 12.8-19.2 6.4 0 12.8 6.4 19.2 12.8 32 172.8 179.2 294.4 352 294.4 6.4 0 12.8 6.4 12.8 12.8 0 12.8-6.4 19.2-12.8 19.2zM204.8 531.2c-6.4 0-12.8-6.4-12.8-12.8v-19.2c0-6.4 6.4-12.8 12.8-12.8s12.8 6.4 12.8 12.8v19.2c6.4 6.4 0 12.8-12.8 12.8z" fill="" p-id="3072">
    </path>
    <path d="M620.8 307.2m-25.6 0a25.6 25.6 0 1 0 51.2 0 25.6 25.6 0 1 0-51.2 0Z" fill="" p-id="3073">
    </path>
    <path d="M793.6 185.6m-25.6 0a25.6 25.6 0 1 0 51.2 0 25.6 25.6 0 1 0-51.2 0Z" fill="" p-id="3074">
    </path>
    <path d="M736 416m-25.6 0a25.6 25.6 0 1 0 51.2 0 25.6 25.6 0 1 0-51.2 0Z" fill="" p-id="3075">
    </path>
</svg>
