<?xml version="1.0" standalone="no"?>
<!DOCTYPE svg PUBLIC "-//W3C//DTD SVG 1.1//EN" "http://www.w3.org/Graphics/SVG/1.1/DTD/svg11.dtd">
<svg t="1596003699720" class="icon" viewBox="0 0 1024 1024" version="1.1" xmlns="http://www.w3.org/2000/svg" p-id="2302" xmlns:xlink="http://www.w3.org/1999/xlink">
    <path d="M512 246.518519c-147.949037 0-265.481481 117.532444-265.481481 265.481481 0 147.930074 117.532444 265.481481 265.481481 265.481481s265.481481-117.551407 265.481481-265.481481c0-147.949037-117.532444-265.481481-265.481481-265.481481z m0 455.111111c-105.509926 0-189.62963-84.119704-189.62963-189.62963s84.119704-189.62963 189.62963-189.62963 189.62963 84.119704 189.62963 189.62963-84.119704 189.62963-189.62963 189.62963zM283.591111 229.091556L170.799407 116.299852 116.698074 170.420148l112.772741 112.772741 54.120296-54.101333zM905.860741 170.401185l-54.101334-54.101333-112.791703 112.772741 54.120296 54.120296 112.772741-112.791704zM549.925926 0h-75.851852v170.666667h75.851852V0zM170.666667 474.074074H0v75.851852h170.666667v-75.851852zM116.698074 851.361185l54.101333 54.120296 112.791704-112.791703-54.120296-54.101334-112.772741 112.772741zM853.333333 474.074074v75.851852h170.666667v-75.851852h-170.666667z m-114.365629 318.615704l112.791703 112.772741 54.101334-54.101334-112.772741-112.772741-54.120296 54.101334zM474.074074 1024h75.851852v-170.666667h-75.851852v170.666667z" p-id="2303">
    </path>
</svg>
